<?xml version="1.0" encoding="utf-8"?>
<!-- Generator: Adobe Illustrator 19.0.0, SVG Export Plug-In . SVG Version: 6.00 Build 0)  -->
<svg version="1.1" id="Laag_1" xmlns="http://www.w3.org/2000/svg" xmlns:xlink="http://www.w3.org/1999/xlink" x="0px" y="0px"
	 viewBox="0 0 1618.4 391.5" style="enable-background:new 0 0 1618.4 391.5;" xml:space="preserve">
<style type="text/css">
	.st0{fill:#FFFFFF;}
</style>
<g id="XMLID_119_">
	<path id="XMLID_120_" class="st0" d="M122.8,125.5l11.8,158.2l68.5-158.2h102.7L169.2,377.7h-105L17.4,125.5H122.8z"/>
	<path id="XMLID_122_" class="st0" d="M397.2,125.5l-44.5,252.2H250l44.5-252.2H397.2z M400.1,54.9c-4.3,24.4-24.3,42-48.9,42
		s-38.5-17.5-34.1-42c4.4-24.9,24.4-42.4,49-42.4S404.5,30,400.1,54.9z"/>
	<path id="XMLID_125_" class="st0" d="M504.2,189.1c-8.7,0-14.7,3.2-15.6,8.3c-4.1,23.5,127.1,14.3,112.2,99.1
		c-9.2,52.1-59.4,85.8-128.3,85.8c-46.1,0-85.1-12-115.6-36l42.4-64.6c29.7,20.8,58.8,31.4,86.7,31.4c9.6,0,16-2.8,16.8-7.4
		c3.9-22.1-124.7-12.5-109.7-97.8c9.4-53,58.7-87.2,125.4-87.2c39.7,0,76.7,10.6,110.4,31.8l-45.1,64.1
		C550.1,198.3,523.4,189.1,504.2,189.1z"/>
	<path id="XMLID_127_" class="st0" d="M892.1,125.5l-44.5,252.2H744.9l6.2-35c-20.9,25.4-48.5,39.7-80.5,39.7
		c-51.1,0-80.5-37.8-70.3-95.9l28.4-160.9h102.7l-23.1,131c-3.7,21.2,4.9,34.6,21.3,34.6c18.7,0,33.4-16.1,37.7-40.6l22-125H892.1z"
		/>
	<path id="XMLID_129_" class="st0" d="M1322,216.8l-28.4,160.9h-102.7l23.1-131c3.7-21.2-5.3-34.6-22.2-34.6
		c-19.2,0-34.3,16.1-38.7,40.6l-22,125h-102.7l23.1-131c3.7-21.2-5.3-34.6-22.2-34.6c-19.2,0-34.3,16.1-38.7,40.6l-22,125H865.9
		l44.5-252.2h102.7l-6.3,35.5c21.4-25.4,49.1-40.1,81.5-40.1c37.9,0,64,20.3,71.3,54c22-34.1,53.8-54,91.2-54
		C1302.4,120.9,1332.3,158.7,1322,216.8z"/>
	<path id="XMLID_131_" class="st0" d="M1591.2,251.4c-13.9,78.9-78.2,130-164,130s-132-51.2-118.1-130
		c13.9-78.9,78.1-129.6,163.9-129.6S1605.1,172.5,1591.2,251.4z M1412.5,252.7c-5.2,29.5,6,48.9,28.8,48.9s40.9-19.4,46.1-48.9
		c5.2-29.5-6-48.9-28.8-48.9C1435.7,203.9,1417.7,223.2,1412.5,252.7z"/>
</g>
</svg>
